<svg width="1019" height="756" viewBox="0 0 1019 756" fill="none" xmlns="http://www.w3.org/2000/svg">
<path d="M0 26C0 11.6406 11.6406 0 26 0H189C203.359 0 215 11.6406 215 26V730C215 744.359 203.359 756 189 756H26C11.6406 756 0 744.359 0 730V26Z" fill="white"/>
<path d="M268 321C268 335.359 279.641 347 294 347H457C471.359 347 483 335.359 483 321V26C483 11.6406 471.359 0 457 0H294C279.641 0 268 11.6406 268 26V321Z" fill="white"/>
<path d="M268 730C268 744.359 279.641 756 294 756H457C471.359 756 483 744.359 483 730V435C483 420.641 471.359 409 457 409H294C279.641 409 268 420.641 268 435V730Z" fill="#1D4ED8"/>
<path d="M536 26C536 11.6406 547.641 0 562 0H725C739.359 0 751 11.6406 751 26V730C751 744.359 739.359 756 725 756H562C547.641 756 536 744.359 536 730V26Z" fill="white"/>
<path d="M804 26C804 11.6406 815.641 0 830 0H993C1007.36 0 1019 11.6406 1019 26V179C1019 193.359 1007.36 205 993 205H830C815.641 205 804 193.359 804 179V26Z" fill="white"/>
<path d="M804 301C804 286.641 815.641 275 830 275H993C1007.36 275 1019 286.641 1019 301V454C1019 468.359 1007.36 480 993 480H830C815.641 480 804 468.359 804 454V301Z" fill="white"/>
<path d="M804 576C804 561.641 815.641 550 830 550H993C1007.36 550 1019 561.641 1019 576V729C1019 743.359 1007.36 755 993 755H830C815.641 755 804 743.359 804 729V576Z" fill="#1D4ED8"/>
</svg>
