<svg width="310" height="278" viewBox="0 0 310 278" fill="none" xmlns="http://www.w3.org/2000/svg">
<path d="M309 277.027C239 188.627 104.834 240.193 46.5002 277.027C70.1003 250.227 94.3335 234.86 103.5 230.527C23.2415 231.164 1.9749 181.024 0.174728 124.695C-0.519813 102.962 2.70737 80.85 12.6365 61.5057C47.2583 -5.94548 119.431 -7.4194 151.5 8.02677C194.356 28.6684 178.5 58.5268 170.5 69.0268C169.7 101.827 146.834 103.027 135.5 99.5268C142.356 95.7456 158.783 69.0268 151.5 62.5268C135.5 48.2456 142 34.3601 146.5 28.0268C141.47 24.3798 131.549 22.7789 119.916 22.3757C75.1472 20.8239 35.8173 46.5884 29.9709 91.0012C27.2437 111.719 27.7193 132.235 34.0002 143.527C64.0002 107.927 104.5 102.36 121 104.027C191.4 109.627 262 170.027 288.5 199.527C278.9 192.727 271.167 196.693 268.5 199.527C301.7 228.327 309.333 263.193 309 277.027Z" fill="#FF5656"/>
<path d="M309 277.027C239 188.627 104.834 240.193 46.5002 277.027C70.1002 250.227 94.3336 234.86 103.5 230.527C37.9003 231.899 17.6632 198 6.99994 170.5C-4.63265 140.5 27.7193 132.235 34.0002 143.527C64.0002 107.927 104.5 102.36 121 104.027C191.4 109.627 262 170.027 288.5 199.527C278.9 192.727 271.167 196.693 268.5 199.527C301.7 228.327 309.333 263.193 309 277.027Z" fill="#FF8F80"/>
<path d="M135.5 99.5268C142.356 95.7456 158.783 69.0268 151.5 62.5268L153.16 63.6622C158.267 67.1569 164.312 69.0268 170.5 69.0268C169.7 101.827 146.834 103.027 135.5 99.5268Z" fill="#555555"/>
</svg>
