<svg width="40" height="40" viewBox="0 0 40 40" fill="none" xmlns="http://www.w3.org/2000/svg">
<path d="M33.3333 23.3333C35.1743 23.3333 36.6667 21.841 36.6667 20C36.6667 18.1591 35.1743 16.6667 33.3333 16.6667C31.4924 16.6667 30 18.1591 30 20C30 21.841 31.4924 23.3333 33.3333 23.3333Z" stroke="#E5E5E5" stroke-width="3" stroke-linecap="round" stroke-linejoin="round"/>
<path d="M33.3333 9.99999C35.1743 9.99999 36.6667 8.50761 36.6667 6.66666C36.6667 4.82571 35.1743 3.33333 33.3333 3.33333C31.4924 3.33333 30 4.82571 30 6.66666C30 8.50761 31.4924 9.99999 33.3333 9.99999Z" stroke="#E5E5E5" stroke-width="3" stroke-linecap="round" stroke-linejoin="round"/>
<path d="M33.3333 36.6667C35.1743 36.6667 36.6667 35.1743 36.6667 33.3333C36.6667 31.4924 35.1743 30 33.3333 30C31.4924 30 30 31.4924 30 33.3333C30 35.1743 31.4924 36.6667 33.3333 36.6667Z" stroke="#E5E5E5" stroke-width="3" stroke-linecap="round" stroke-linejoin="round"/>
<path d="M6.66665 23.3333C8.5076 23.3333 9.99998 21.841 9.99998 20C9.99998 18.1591 8.5076 16.6667 6.66665 16.6667C4.8257 16.6667 3.33331 18.1591 3.33331 20C3.33331 21.841 4.8257 23.3333 6.66665 23.3333Z" stroke="#E5E5E5" stroke-width="3" stroke-linecap="round" stroke-linejoin="round"/>
<path d="M10 20H30" stroke="#E5E5E5" stroke-width="3" stroke-linecap="round" stroke-linejoin="round"/>
<path d="M30 6.66667H23.3333C20 6.66667 18.3333 8.33334 18.3333 11.6667V28.3333C18.3333 31.6667 20 33.3333 23.3333 33.3333H30" stroke="#E5E5E5" stroke-width="3" stroke-linecap="round" stroke-linejoin="round"/>
</svg>
