<svg width="40" height="40" viewBox="0 0 40 40" fill="none" xmlns="http://www.w3.org/2000/svg">
<path d="M26.6666 21.5V28.5C26.6666 34.3333 24.3333 36.6667 18.5 36.6667H11.5C5.66665 36.6667 3.33331 34.3333 3.33331 28.5V21.5C3.33331 15.6667 5.66665 13.3333 11.5 13.3333H18.5C24.3333 13.3333 26.6666 15.6667 26.6666 21.5Z" stroke="#E5E5E5" stroke-width="3" stroke-linecap="round" stroke-linejoin="round"/>
<path d="M36.6666 11.5V18.5C36.6666 24.3333 34.3333 26.6667 28.5 26.6667H26.6666V21.5C26.6666 15.6667 24.3333 13.3333 18.5 13.3333H13.3333V11.5C13.3333 5.66668 15.6666 3.33334 21.5 3.33334H28.5C34.3333 3.33334 36.6666 5.66668 36.6666 11.5Z" stroke="#E5E5E5" stroke-width="3" stroke-linecap="round" stroke-linejoin="round"/>
</svg>
