<svg width="1375" height="375" viewBox="0 0 1375 375" fill="none" xmlns="http://www.w3.org/2000/svg">
<rect width="77.9126" height="375" fill="white"/>
<rect x="198.058" width="77.9126" height="375" fill="white"/>
<rect x="99.0291" y="157.303" width="77.9126" height="217.697" fill="white"/>
<rect x="99.0291" width="77.9126" height="136.236" fill="#1D4ED8"/>
<rect x="297.087" width="77.9126" height="103.581" fill="white"/>
<rect x="297.087" y="271.418" width="77.9126" height="103.581" fill="#1D4ED8"/>
<rect x="297.087" y="121.489" width="77.9126" height="132.022" fill="white"/>
<path d="M506 55.875H570.225C592.15 55.875 608.141 61.0417 618.201 71.375C628.26 81.45 633.29 97.0792 633.29 118.262V129.112C633.29 143.063 630.968 154.429 626.326 163.213C621.941 171.996 615.106 178.325 605.82 182.2V182.975C626.971 190.208 637.546 209.067 637.546 239.55V262.8C637.546 283.725 632 299.742 620.909 310.85C610.076 321.7 594.084 327.125 572.934 327.125H506V55.875ZM565.196 166.313C573.707 166.313 580.027 164.117 584.154 159.725C588.539 155.333 590.731 147.971 590.731 137.637V122.525C590.731 112.708 588.925 105.604 585.314 101.213C581.961 96.8208 576.545 94.625 569.065 94.625H548.559V166.313H565.196ZM572.934 288.375C580.414 288.375 585.959 286.437 589.57 282.562C593.181 278.429 594.987 271.454 594.987 261.637V238C594.987 225.6 592.794 217.075 588.41 212.425C584.283 207.517 577.318 205.062 567.517 205.062H548.559V288.375H572.934Z" fill="white"/>
<path d="M662.422 55.875H778.492V94.625H704.981V166.313H763.403V205.062H704.981V288.375H778.492V327.125H662.422V55.875Z" fill="white"/>
<path d="M925.296 331C904.661 331 888.928 325.187 878.094 313.562C867.261 301.679 861.845 284.758 861.845 262.8V120.2C861.845 98.2417 867.261 81.45 878.094 69.825C888.928 57.9417 904.661 52 925.296 52C945.931 52 961.665 57.9417 972.498 69.825C983.331 81.45 988.748 98.2417 988.748 120.2V143.45H948.51V117.488C948.51 99.6625 941.159 90.75 926.457 90.75C911.755 90.75 904.404 99.6625 904.404 117.488V265.9C904.404 283.467 911.755 292.25 926.457 292.25C941.159 292.25 948.51 283.467 948.51 265.9V212.812H927.231V174.063H988.748V262.8C988.748 284.758 983.331 301.679 972.498 313.562C961.665 325.187 945.931 331 925.296 331Z" fill="white"/>
<path d="M1016.07 55.875H1079.14C1101.06 55.875 1117.05 61.0417 1127.11 71.375C1137.17 81.45 1142.2 97.0792 1142.2 118.262V134.925C1142.2 163.083 1132.92 180.908 1114.34 188.4V189.175C1124.66 192.275 1131.88 198.604 1136.01 208.162C1140.4 217.721 1142.59 230.508 1142.59 246.525V294.188C1142.59 301.938 1142.85 308.267 1143.36 313.175C1143.88 317.825 1145.17 322.475 1147.23 327.125H1103.9C1102.35 322.733 1101.32 318.6 1100.8 314.725C1100.29 310.85 1100.03 303.875 1100.03 293.8V244.2C1100.03 231.8 1097.97 223.146 1093.84 218.238C1089.97 213.329 1083.13 210.875 1073.33 210.875H1058.63V327.125H1016.07V55.875ZM1074.11 172.125C1082.62 172.125 1088.94 169.929 1093.07 165.537C1097.45 161.146 1099.64 153.783 1099.64 143.45V122.525C1099.64 112.708 1097.84 105.604 1094.23 101.213C1090.87 96.8208 1085.46 94.625 1077.98 94.625H1058.63V172.125H1074.11Z" fill="white"/>
<path d="M1172.12 55.875H1214.68V327.125H1172.12V55.875Z" fill="white"/>
<path d="M1246.55 55.875H1311.55C1332.7 55.875 1348.56 61.5583 1359.14 72.925C1369.71 84.2917 1375 100.954 1375 122.913V260.088C1375 282.046 1369.71 298.708 1359.14 310.075C1348.56 321.442 1332.7 327.125 1311.55 327.125H1246.55V55.875ZM1310.77 288.375C1317.74 288.375 1323.03 286.308 1326.64 282.175C1330.51 278.042 1332.44 271.325 1332.44 262.025V120.975C1332.44 111.675 1330.51 104.958 1326.64 100.825C1323.03 96.6917 1317.74 94.625 1310.77 94.625H1289.11V288.375H1310.77Z" fill="white"/>
</svg>
